<svg width="1512" height="50" viewBox="0 0 1512 50" fill="none" xmlns="http://www.w3.org/2000/svg">
<path d="M0 9.44026C15.8261 5.03406 59.1653 -2.81693 105.913 1.02992C136.544 4.54172 162.679 10.1299 186.868 15.3024C228.897 24.2897 265.055 32.0213 308.729 25.4233C326.718 22.7057 343.497 19.8491 359.556 17.115L359.567 17.1132L359.567 17.1131C437.947 3.76922 499.199 -6.65879 600.509 16.1744C685.823 35.4022 730.135 20.1777 752.348 13.9777C768.174 9.57153 815.165 -2.81693 861.913 1.02992C892.544 4.54172 918.679 10.1299 942.868 15.3024C984.898 24.2897 1021.06 32.0213 1064.73 25.4233C1082.72 22.7062 1099.49 19.8501 1115.55 17.1165L1115.57 17.1132C1193.95 3.76925 1255.2 -6.65882 1356.51 16.1744C1441.82 35.4022 1484.2 23.5753 1506.41 17.3753C1508.43 16.8098 1510.29 16.2911 1512 15.8471V2025.72C1466.35 2048.21 1379.61 2059.77 1293.29 2042.64C1281.54 2040.31 1269.21 2037.7 1256.39 2034.98L1256.31 2034.96C1184.99 2019.83 1098.64 2001.51 1013.39 2011.08C986.16 2014.13 961.379 2019.6 935.967 2025.21C886.138 2036.21 800.739 2047.13 763.304 2049.68C725.87 2052.22 640.043 2055.67 594.391 2049.68C548.739 2043.68 513.156 2037.69 500.309 2034.96C428.992 2019.83 342.642 2001.51 257.386 2011.08C230.16 2014.13 205.379 2019.6 179.968 2025.21L179.962 2025.21C130.135 2036.21 77.8791 2047.74 0 2042.65V9.44026Z" fill="url(#paint0_linear_1770_22667)"/>
<defs>
<linearGradient id="paint0_linear_1770_22667" x1="756.004" y1="18.179" x2="756.004" y2="2035.95" gradientUnits="userSpaceOnUse">
<stop offset="0.0209292" stop-color="#D4F2FF"/>
<stop offset="0.195675" stop-color="#D4F2FF"/>
<stop offset="0.281608" stop-color="#FFF0F3"/>
<stop offset="0.438743" stop-color="#FFF0F3"/>
<stop offset="0.53777" stop-color="#FFFDE2"/>
<stop offset="0.698179" stop-color="#FFFDE2"/>
<stop offset="0.785233" stop-color="#E5FBB6"/>
<stop offset="0.969031" stop-color="#E5FBB6"/>
</linearGradient>
</defs>
</svg>
